<svg width="211" height="221" viewBox="0 0 211 221" fill="none" xmlns="http://www.w3.org/2000/svg">
<g clip-path="url(#clip0_1_42)">
<path d="M121.871 8.16365C122.452 8.59304 121.366 7.75986 121.894 8.20541L122.214 8.46561C122.483 8.68543 122.742 8.91117 123.001 9.1369C123.516 9.59654 124.008 10.0762 124.498 10.564C124.988 11.0518 125.432 11.5796 125.862 12.1081C126.068 12.2934 126.241 12.5125 126.373 12.756L126.142 12.4456L126.385 12.7769L126.733 13.2694C127.513 14.4074 128.212 15.5983 128.826 16.8336C129.09 17.3734 129.346 17.9593 129.598 18.5265C129.35 17.8677 129.888 19.1966 129.598 18.5265L129.747 18.911C129.881 19.2695 130.001 19.6286 130.122 19.9877C130.55 21.2782 130.891 22.5961 131.141 23.9325C131.205 24.2757 131.265 24.6138 131.312 24.9525L131.384 25.47C131.411 25.6755 131.403 26.1487 131.36 25.4282C131.369 26.1128 131.49 26.8023 131.515 27.4915C131.572 28.8687 131.527 30.2483 131.383 31.6192C131.364 31.8297 131.294 32.9374 131.337 32.0863C131.302 32.3971 131.246 32.7052 131.169 33.0083C131.042 33.7214 130.882 34.4254 130.692 35.1256C130.502 35.8258 130.35 36.3119 130.149 36.8945C130.036 37.2199 129.919 37.5484 129.79 37.8693C129.759 37.887 129.49 38.5564 129.702 38.0914C129.915 37.6265 129.555 38.416 129.519 38.4985C128.944 39.7435 128.27 40.9406 127.505 42.0786C127.327 42.3376 127.145 42.5996 126.959 42.8563C126.922 42.877 126.531 43.464 126.816 43.0544C127.101 42.6448 126.695 43.2057 126.667 43.2421C126.225 43.7887 125.761 44.3204 125.284 44.8312C124.331 45.8497 123.305 46.7969 122.214 47.6654C122.161 47.6949 121.608 48.1184 122.033 47.809C122.458 47.4996 121.881 47.8947 121.829 47.9243C121.575 48.1093 121.339 48.2773 121.048 48.4696C120.436 48.8854 119.808 49.2751 119.163 49.6468C118.61 49.9602 118.056 50.2735 117.476 50.5398C117.173 50.7113 116.845 50.8491 116.519 50.9922C116.369 51.0769 116.209 51.147 116.038 51.2024C115.818 51.3265 115.233 51.706 115.907 51.2763C115.338 51.5632 114.735 51.7793 114.113 51.9196C113.407 52.1467 112.692 52.3448 111.97 52.5191C111.248 52.6934 110.656 52.8287 110.022 52.9259C109.675 52.9841 109.326 53.037 108.979 53.0818C108.808 53.1094 108.454 53.2137 109.123 53.069C108.909 53.1083 108.692 53.132 108.474 53.1401C107.075 53.2638 105.668 53.2789 104.266 53.1853C103.916 53.1631 103.552 53.1416 103.213 53.0919L102.792 53.0412C102.063 52.9713 103.434 53.1531 102.719 53.0342C102.003 52.9153 101.33 52.7861 100.642 52.6175C99.9534 52.4489 99.3833 52.2822 98.765 52.067C98.4752 51.9691 98.1876 51.863 97.8971 51.7518C97.8764 51.7152 97.2256 51.4426 97.6749 51.6638L97.2783 51.4748C96.0538 50.9045 94.8817 50.2279 93.7756 49.4527C93.5089 49.2906 93.2567 49.1059 93.0218 48.9006C93.5746 49.4631 93.1308 48.9836 92.9952 48.8536L92.6755 48.5934C92.1223 48.1277 91.5915 47.6285 91.0869 47.1146C90.5822 46.6007 90.1919 46.1669 89.7794 45.6697L89.521 45.3472C89.0627 44.7933 89.9272 45.9307 89.521 45.3472L88.9463 44.5145C88.5761 43.958 88.2362 43.3819 87.928 42.7887L87.5348 41.9843L87.3372 41.5378C87.0467 40.9027 87.5733 42.2106 87.3372 41.5378C87.1012 40.8649 86.9447 40.3814 86.7902 39.7796C86.7192 39.4958 86.6587 39.2061 86.6011 38.9216L86.5045 38.349L86.4785 38.157C86.4352 37.8368 86.4439 37.9009 86.4993 38.352C86.4993 38.352 86.437 36.7192 86.439 36.6009C86.4493 36.278 86.47 35.9492 86.4989 35.6227C86.5066 35.5632 86.569 34.8937 86.5206 35.4174C86.4723 35.941 86.5793 35.0947 86.599 35.0077C86.723 34.4045 86.8864 33.8101 87.0881 33.2282L87.2673 32.7408C87.4097 32.3224 86.9548 33.407 87.2507 32.7846C87.4129 32.4378 87.5602 32.1132 87.7603 31.7724C88.0573 31.2252 88.5418 30.7167 88.8077 30.1388C88.6107 30.5949 88.5346 30.4726 88.7067 30.2649L89.1225 29.7814C89.3431 29.5255 89.5801 29.2742 89.823 29.0333C90.3103 28.5467 90.823 28.0862 91.359 27.6538C91.6398 27.4191 91.3612 27.4872 91.2023 27.7425C91.3249 27.6186 91.4665 27.5151 91.6219 27.4361C91.9523 27.2077 92.2747 26.9977 92.5891 26.8059C93.1895 26.4408 93.8081 26.1067 94.4427 25.805C94.6882 25.666 94.9602 25.5741 95.2204 25.4613C95.89 25.1581 94.563 25.6886 95.257 25.4406C95.4575 25.3684 95.655 25.2911 95.8294 25.2337C97.1821 24.7874 98.5717 24.4622 99.9819 24.2619C100.171 24.2306 100.468 24.1105 99.8427 24.2717C100.019 24.2417 100.197 24.2263 100.375 24.2255C100.691 24.1984 101.03 24.1648 101.329 24.1682C102.073 24.1418 102.818 24.1572 103.561 24.2141C103.921 24.2404 104.275 24.2695 104.624 24.3017C104.738 24.32 105.523 24.4406 104.803 24.3247L105.271 24.3972C106.039 24.5349 106.821 24.6987 107.579 24.9041C108.336 25.1094 109.102 25.3788 109.852 25.6437C110.221 25.7724 110.591 25.9145 110.958 26.0513L111.398 26.2301C112.126 26.5068 110.839 25.9742 111.568 26.2993C113.017 26.9491 114.43 27.677 115.801 28.4797C117.187 29.2947 118.525 30.1847 119.825 31.1304C120.115 31.3384 120.408 31.5516 120.699 31.773L121.18 32.135C120.67 31.7342 121.026 32.022 121.156 32.0932C121.84 32.6436 122.529 33.1909 123.203 33.7606C127.757 37.6144 131.905 41.9225 135.584 46.6181L136.277 47.5144C136.407 47.6824 136.477 47.9528 136.215 47.4048C136.297 47.5325 136.388 47.6535 136.489 47.7668C136.983 48.4317 137.471 49.0996 137.947 49.7816C138.79 50.9791 139.613 52.2019 140.4 53.4454C142.013 55.9787 143.475 58.5494 144.831 61.2007C145.515 62.5435 146.167 63.8906 146.795 65.2793C147.09 65.9303 147.379 66.587 147.662 67.2494L148.056 68.1907L148.269 68.7117C148.579 69.4667 148.122 68.319 148.349 68.9144C149.419 71.6584 150.387 74.4399 151.215 77.2662C152.042 80.0926 152.783 83.1061 153.362 86.0662C153.651 87.552 153.903 89.0407 154.118 90.5322C154.218 91.2058 154.309 91.878 154.39 92.549L154.408 92.6771L154.463 93.1282L154.599 94.4778C155.174 100.408 155.169 106.381 154.585 112.311C154.525 113.034 154.441 113.737 154.353 114.448L154.23 115.448L154.189 115.74L154.116 116.257C153.889 117.709 153.633 119.156 153.334 120.601C152.733 123.513 151.983 126.392 151.087 129.227C150.635 130.655 150.15 132.079 149.63 133.499C149.379 134.165 149.125 134.825 148.858 135.486L148.465 136.398C148.176 137.106 148.714 135.816 148.409 136.52L148.145 137.138C146.959 139.849 145.645 142.498 144.203 145.083C142.761 147.669 141.195 150.181 139.506 152.622C138.653 153.856 137.772 155.065 136.863 156.261C136.539 156.7 136.863 156.261 136.929 156.183C136.796 156.361 136.655 156.538 136.534 156.703C136.414 156.867 136.166 157.173 135.974 157.406C135.464 158.053 134.932 158.685 134.409 159.319C130.589 163.858 126.36 168.038 121.776 171.804C121.227 172.26 120.667 172.708 120.109 173.148L119.308 173.766C119.272 173.787 118.682 174.245 119.094 173.936C119.505 173.627 118.762 174.179 118.695 174.231C117.52 175.103 116.326 175.949 115.112 176.769C112.659 178.428 110.132 179.969 107.53 181.391C104.899 182.833 102.196 184.149 99.4508 185.317C99.1407 185.451 98.8328 185.577 98.5196 185.706L97.9985 185.918C97.4826 186.127 98.0351 185.897 98.1134 185.853C97.3677 186.192 96.5725 186.456 95.8048 186.732C94.4362 187.238 93.047 187.707 91.6557 188.137C88.8964 188.995 86.0995 189.715 83.265 190.294C82.8829 190.39 82.5233 190.56 82.2069 190.795C81.8906 191.03 81.6235 191.325 81.421 191.663C81.2185 192.001 81.0846 192.375 81.0269 192.765C80.9692 193.155 80.9888 193.552 81.0847 193.934C81.2952 194.696 81.7915 195.348 82.4705 195.753C83.1494 196.158 83.9586 196.286 84.7296 196.11C97.0626 193.529 108.748 188.483 119.084 181.276C129.598 173.99 138.634 164.775 145.712 154.12C152.705 143.631 157.45 131.808 159.651 119.397C161.801 106.731 161.406 93.764 158.491 81.2534C155.63 68.9038 150.413 57.2225 143.127 46.8493C139.432 41.5574 135.195 36.6649 130.485 32.2511C125.64 27.7355 120.271 23.5237 114.139 20.9147C108.008 18.3056 100.998 17.2006 94.4929 19.4007C88.3456 21.5017 82.8684 25.9805 81.0602 32.4218C77.5329 44.9988 89.2046 56.8237 100.934 58.7731C113.411 60.8504 126.718 54.9655 133.356 44.095C139.718 33.6766 138.635 19.4221 131.491 9.65239C129.637 7.10871 127.412 4.8574 124.891 2.97352C123.628 2.03398 121.477 2.74136 120.79 4.06093C119.957 5.63514 120.521 7.15606 121.871 8.16365Z" fill="#130E54"/>
<path d="M93.0772 171.754C85.5862 178.352 78.0896 184.948 70.5877 191.542C68.9502 192.986 69.7347 196.126 71.909 196.557L102.574 202.773L111.233 204.523C112.782 204.825 114.545 204.089 114.925 202.433C115.273 200.941 114.478 199.074 112.836 198.743C102.614 196.666 92.3902 194.595 82.1652 192.53L73.512 190.776L74.8282 195.794C82.3227 189.194 89.8192 182.598 97.3177 176.005C97.8763 175.442 98.1888 174.68 98.1869 173.886C98.1849 173.093 97.8687 172.333 97.3074 171.772C96.7371 171.225 95.9774 170.918 95.1866 170.916C94.3957 170.915 93.6346 171.218 93.0616 171.763L93.0772 171.754Z" fill="#130E54"/>
</g>
<defs>
<clipPath id="clip0_1_42">
<rect width="171" height="145" fill="white" transform="translate(126.477 0.379883) rotate(60.4887)"/>
</clipPath>
</defs>
</svg>
