<svg width="18" height="18" viewBox="0 0 18 18" fill="none" xmlns="http://www.w3.org/2000/svg">
<path d="M17.4652 7.31227C17.5776 7.91477 17.6389 8.5447 17.6389 9.20205C17.6389 14.3439 14.1976 18 9 18C7.818 18.0004 6.64752 17.7678 5.55542 17.3156C4.46333 16.8635 3.47103 16.2006 2.63524 15.3648C1.79944 14.529 1.13652 13.5367 0.684351 12.4446C0.232186 11.3525 -0.000359965 10.182 4.18231e-07 9C-0.000359965 7.818 0.232186 6.64752 0.684351 5.55542C1.13652 4.46333 1.79944 3.47103 2.63524 2.63524C3.47103 1.79944 4.46333 1.13652 5.55542 0.684351C6.64752 0.232186 7.818 -0.000359965 9 4.18231e-07C11.4301 4.18231e-07 13.4607 0.894149 15.0186 2.346L12.4815 4.88308V4.87668C11.5371 3.97704 10.3385 3.51534 9 3.51534C6.03048 3.51534 3.61682 6.02408 3.61682 8.99451C3.61682 11.964 6.03048 14.4783 9 14.4783C11.6943 14.4783 13.5283 12.9377 13.905 10.8221H9V7.31227H17.4661H17.4652Z" fill="white" fill-opacity="0.3"/>
</svg>
