<svg width="32" height="37" viewBox="0 0 32 37" fill="none" xmlns="http://www.w3.org/2000/svg">
<path d="M16.2857 0L14.7857 1.83588L19.6428 5.64885L19.3571 7.62595L18.7857 11.0153L16.2857 12.0038L13.7143 12.9924L11.7143 11.3683L9.42857 9.60305L10.3571 3.60114L8 3.24809L7.07142 9.25L1.35714 11.5095L2.21428 13.6279L7.92856 11.4389L10.7857 13.6985L12.2143 14.8282L11.6429 18.5706L11.4286 20.124L9.07143 21.042L6.28572 22.1718L1.49999 18.3588L0 20.1947L5.92857 24.7844L6.57143 24.5725L12.2857 22.313L14.7143 24.2901L16.5714 25.7023L16.1428 28.5973L15.7857 31.0687L10 33.2576L10.8571 35.4466L16.6429 33.2576L21.4286 37L22.9286 35.2347L18.0714 31.4218L18.5714 28.4561L18.9286 26.0553L21.3571 25.0668L24 24.0782L28.8571 27.8912L30.2857 26.0553L25.5 22.2424L25.8571 19.5592L26.2857 16.876L32 14.687L31.1428 12.4981L25.4286 14.687L23.4286 13.1336L21.1428 11.3683L21.4286 9.32061L21.9286 6.0019L27.7143 3.74236L26.8571 1.55343L21.0714 3.81298L16.2857 0ZM21.7857 14.8282L23.9286 16.5229L23.6428 18.7118L23.1429 21.8893L20.5 22.9485L18.0714 23.8664L15.6429 21.9599L13.7857 20.4771L14.2143 17.4408L14.5714 15.1107L17.1429 14.1221L19.6428 13.1336L21.7857 14.8282Z" fill="#130E54"/>
</svg>
