<svg width="211" height="221" fill="none" xmlns="http://www.w3.org/2000/svg"><g clip-path="url(#a)" fill="#130E54"><path d="M121.871 8.164c.581.429-.505-.404.023.041l.32.26c.269.22.528.446.787.672.515.46 1.007.94 1.497 1.427.49.488.934 1.016 1.364 1.544.206.185.379.404.511.648l-.231-.31.243.33.348.493a29.632 29.632 0 0 1 2.093 3.565c.264.54.52 1.125.772 1.692-.248-.658.29.67 0 0l.149.385c.134.358.254.718.375 1.077a30.136 30.136 0 0 1 1.19 4.965l.072.517c.027.206.019.679-.024-.042.009.685.13 1.374.155 2.063a28.308 28.308 0 0 1-.132 4.128c-.019.21-.089 1.318-.046.467-.035.311-.091.62-.168.922a24.433 24.433 0 0 1-.477 2.118 25.41 25.41 0 0 1-.902 2.743c-.031.018-.3.687-.088.222.213-.465-.147.325-.183.407a25.834 25.834 0 0 1-2.56 4.358c-.037.021-.428.608-.143.198.285-.41-.121.152-.149.188a28.588 28.588 0 0 1-4.453 4.423c-.053.03-.606.453-.181.144.425-.31-.152.086-.204.115a30.006 30.006 0 0 1-2.666 1.722 22.44 22.44 0 0 1-1.687.894c-.303.171-.631.31-.957.452-.15.085-.31.155-.481.21-.22.125-.805.504-.131.074a7.796 7.796 0 0 1-1.794.644c-.706.227-1.421.425-2.143.6-.722.173-1.314.309-1.948.406-.347.058-.696.111-1.043.156-.171.027-.525.132.144-.013-.214.04-.431.063-.649.071a27.204 27.204 0 0 1-4.208.045c-.35-.022-.714-.043-1.053-.093l-.421-.05c-.729-.07.642.111-.073-.008a27.59 27.59 0 0 1-2.077-.416 19.777 19.777 0 0 1-1.877-.551c-.29-.098-.577-.204-.868-.315-.02-.037-.671-.31-.222-.088l-.397-.19a23.085 23.085 0 0 1-3.502-2.021 5.435 5.435 0 0 1-.754-.552c.553.562.109.083-.027-.047l-.32-.26a22.97 22.97 0 0 1-1.588-1.48 22.137 22.137 0 0 1-1.308-1.444l-.258-.323c-.458-.554.406.584 0 0l-.575-.833a18.59 18.59 0 0 1-1.018-1.725l-.393-.805-.198-.446c-.29-.635.236.673 0 0a19.915 19.915 0 0 1-.547-1.758 19.442 19.442 0 0 1-.189-.858l-.097-.573-.026-.192c-.043-.32-.034-.256.021.195 0 0-.062-1.633-.06-1.751.01-.323.031-.652.06-.978.008-.06.07-.73.022-.206-.049.524.058-.322.078-.41.124-.602.287-1.197.49-1.779l.178-.487c.143-.419-.312.666-.016.044.162-.347.31-.672.51-1.013.296-.547.78-1.055 1.047-1.633-.197.456-.273.334-.101.126l.416-.484c.22-.255.457-.507.7-.748.487-.486 1-.947 1.536-1.38.28-.234.002-.166-.157.09.123-.124.264-.228.42-.307.33-.228.653-.438.967-.63.6-.365 1.22-.7 1.854-1.001.245-.139.517-.23.777-.344.67-.303-.657.228.037-.02.2-.073.398-.15.572-.207a24.045 24.045 0 0 1 4.153-.972c.189-.031.486-.152-.14.01a3.26 3.26 0 0 1 .533-.046c.316-.028.655-.061.954-.058a19.959 19.959 0 0 1 2.232.046c.36.026.714.056 1.063.088.114.018.899.139.179.023l.468.072c.768.138 1.55.302 2.308.507.757.205 1.523.475 2.273.74.369.128.739.27 1.106.407l.44.18c.728.276-.559-.257.17.068a44.062 44.062 0 0 1 4.233 2.18 49.498 49.498 0 0 1 4.024 2.651c.29.208.583.422.874.643l.481.362c-.51-.4-.154-.113-.024-.042.684.55 1.373 1.098 2.047 1.668a87.695 87.695 0 0 1 12.381 12.857l.693.896c.13.168.2.439-.062-.11.082.128.173.25.274.363a83.79 83.79 0 0 1 1.458 2.015 94.459 94.459 0 0 1 6.884 11.42 97.083 97.083 0 0 1 2.831 6.047l.394.942.213.52c.31.756-.147-.392.08.203a101.721 101.721 0 0 1 2.866 8.352 100.43 100.43 0 0 1 2.147 8.8 92.54 92.54 0 0 1 .756 4.466c.1.674.191 1.346.272 2.017l.018.128.055.451.136 1.35a91.68 91.68 0 0 1-.014 17.833c-.06.723-.144 1.426-.232 2.137l-.123 1-.041.292-.073.517a86.928 86.928 0 0 1-3.029 12.97 101.457 101.457 0 0 1-1.457 4.272 90.571 90.571 0 0 1-.772 1.987l-.393.912c-.289.708.249-.582-.056.122l-.264.618a91.951 91.951 0 0 1-8.639 15.484 99.694 99.694 0 0 1-2.643 3.639c-.324.439 0 0 .066-.078-.133.178-.274.355-.395.52-.12.164-.368.47-.56.703-.51.647-1.042 1.279-1.565 1.913a96.957 96.957 0 0 1-12.633 12.485c-.549.456-1.109.904-1.667 1.344l-.801.618c-.036.021-.626.479-.214.17a98.917 98.917 0 0 1-3.982 2.833 93.948 93.948 0 0 1-7.582 4.622 90.81 90.81 0 0 1-8.08 3.926c-.31.134-.617.26-.93.389l-.521.212c-.516.209.036-.021.114-.065-.745.339-1.54.603-2.308.879a80.71 80.71 0 0 1-4.15 1.405 86.643 86.643 0 0 1-8.39 2.157 3 3 0 0 0-2.18 3.64 3.07 3.07 0 0 0 3.645 2.176 93.58 93.58 0 0 0 34.354-14.834 101.101 101.101 0 0 0 26.628-27.156 91.352 91.352 0 0 0 13.939-34.723 96.744 96.744 0 0 0-1.16-38.144 98.556 98.556 0 0 0-15.364-34.404 92.873 92.873 0 0 0-12.642-14.598c-4.845-4.515-10.214-8.727-16.346-11.336-6.131-2.61-13.141-3.714-19.646-1.514-6.147 2.1-11.625 6.58-13.433 13.02C77.533 45 89.205 56.825 100.934 58.774c12.477 2.077 25.784-3.808 32.422-14.678 6.362-10.418 5.279-24.673-1.865-34.443a31.5 31.5 0 0 0-6.6-6.678c-1.263-.94-3.414-.233-4.101 1.087-.833 1.574-.269 3.095 1.081 4.103Z"/><path d="M93.077 171.754a29315.394 29315.394 0 0 1-22.49 19.788c-1.637 1.444-.852 4.584 1.322 5.015l30.665 6.216 8.659 1.75c1.549.302 3.312-.434 3.692-2.09.348-1.492-.447-3.359-2.089-3.69a26417.433 26417.433 0 0 0-30.67-6.213l-8.654-1.754 1.316 5.018c7.495-6.6 14.991-13.196 22.49-19.789a2.998 2.998 0 0 0-.01-4.233 3.076 3.076 0 0 0-4.246-.009l.015-.009Z"/></g><defs><clipPath id="a"><path fill="#fff" transform="rotate(60.489 62.913 108.651)" d="M0 0h171v145H0z"/></clipPath></defs></svg>