<svg width="32" height="37" fill="none" xmlns="http://www.w3.org/2000/svg"><path d="m16.286 0-1.5 1.836 4.857 3.813-.286 1.977-.571 3.39-2.5.988-2.572.988-2-1.624L9.43 9.603l.928-6.002L8 3.248 7.071 9.25l-5.714 2.26.857 2.118 5.715-2.19 2.857 2.26 1.428 1.13-.571 3.743-.214 1.553-2.358.918-2.785 1.13L1.5 18.359 0 20.195l5.929 4.59.642-.212 5.715-2.26 2.428 1.977 1.857 1.412-.428 2.895-.357 2.472L10 33.258l.857 2.189 5.786-2.19L21.429 37l1.5-1.765-4.858-3.813.5-2.966.358-2.4 2.428-.99L24 24.079l4.857 3.813 1.429-1.836-4.786-3.813.357-2.683.429-2.683L32 14.687l-.857-2.189-5.714 2.189-2-1.553-2.286-1.766.286-2.047.5-3.32 5.785-2.259-.857-2.189-5.786 2.26L16.286 0Zm5.5 14.828 2.143 1.695-.286 2.189-.5 3.177-2.643 1.06-2.429.917-2.428-1.906-1.857-1.483.428-3.036.357-2.33 2.572-.989 2.5-.988 2.143 1.694Z" fill="#130E54"/></svg>